<svg xmlns="http://www.w3.org/2000/svg" version="1.1"
    xmlns:xlink="http://www.w3.org/1999/xlink" width="512" height="512" x="0" y="0" viewBox="0 0 64 64" style="enable-background:new 0 0 512 512" xml:space="preserve" class="">
    <g>
        <g data-name="Ka'bah">
            <path fill="#1a1a1a" d="M57 12v39l-25 8-25-8V12l25-7z" opacity="1" data-original="#1a1a1a" class=""></path>
            <path fill="#4d4d4d" d="m7 12 25-7 25 7-25 8z" opacity="1" data-original="#4d4d4d"></path>
            <path fill="#333333" d="m32 20-18.33-5.87L32 9l18.33 5.13z" opacity="1" data-original="#333333"></path>
            <path d="M57 12v39l-12 3.84-9 2.88L32 59V20z" fill="#000000" opacity="1" data-original="#000000" class=""></path>
            <path fill="#f8be31" d="M45 38v16.84l-7.83 2.51-1.17.37V41z" opacity="1" data-original="#f8be31"></path>
            <path fill="#fbd63b" d="m36 29.62-4 1.28-4-1.28v4l4 1.28 4-1.28z" opacity="1" data-original="#fbd63b"></path>
            <path fill="#f8be31" d="m36 29.62-4 1.28v4l4-1.28zM42 27.75 40 30l2 2 2-2z" opacity="1" data-original="#f8be31"></path>
            <path fill="#fbd63b" d="M22 27.75 20 30l2 2 2-2z" opacity="1" data-original="#fbd63b"></path>
            <path fill="#f8be31" d="M54 23.86v4l-6 1.92v-4z" opacity="1" data-original="#f8be31"></path>
            <path fill="#fbd63b" d="M10 23.86v4l6 1.92v-4zM57 14.9v4l-25 8-25-8v-4l25 8z" opacity="1" data-original="#fbd63b"></path>
            <path fill="#f8be31" d="m57 19-25 8v-4.1L57 15z" opacity="1" data-original="#f8be31"></path>
            <path fill="#f7a62b" d="M45 38v16.84l-7.83 2.51A15.397 15.397 0 0 0 42 52.68a15.564 15.564 0 0 0 2.56-7.61z" opacity="1" data-original="#f7a62b"></path>
        </g>
    </g>
</svg>